<?xml version="1.0" encoding="UTF-8"?>
<svg id="Capa_1" data-name="Capa 1" xmlns="http://www.w3.org/2000/svg" viewBox="0 0 256.46 256.46">
  <defs>
    <style>
      .cls-1 {
        font-family: MVBoli, 'MV Boli';
        font-size: 30px;
      }

      .cls-1, .cls-2 {
        fill: #2e3840;
      }

      .cls-3 {
        fill: #fff;
      }

      .cls-3, .cls-2 {
        stroke-width: 0px;
      }
    </style>
  </defs>
  <circle class="cls-3" cx="128.23" cy="128.23" r="128.23"/>
  <path class="cls-2" d="m62.49,165.39c.46-1.6,1.43-2.3,3.47-2.13,1.67.14,3.39-.06,5.06.05,1.51.1,2.5-.3,2.97-1.36,1.25-2.81,3.8-3.32,7.5-3.31,44.94.11,89.88.07,134.81.07h2.35v6.67H62.49Z"/>
  <path class="cls-2" d="m105.71,102.38c.89,3.02,1.75,5.92,2.6,8.82q-3.1.43-3.82-1.73c-.64-1.9-1.33-3.8-1.87-5.72-.26-.92-.7-1.24-1.93-1.11-9.74,1-19.51,1.86-29.23,2.95-6.38.71-12.7,1.74-19.23,2.65.37-.16.59-.3.85-.37,21.28-5.26,42.87-9.34,65.2-10.41,8.03-.38,16.06-.25,23.98,1.01,1.21.19,2.45.66,3.44,1.24,4.51,2.66,8.91,5.45,13.43,8.11.78.46,1.9.77,2.87.78,13.76.11,27.5.49,41.16,1.94,7.57.8,15.09,1.84,22.17,4.29,1.28.44,2.53.97,3.71,1.58,1.78.92,2.27,2.38,1.29,3.86-1.02,1.54-2.14,3.05-3.28,4.54-.23.29-.73.6-1.13.63-1.16.08-2.33.03-3.71.03.25-2.23.3-4.33.77-6.38.36-1.61-.41-2.37-2.1-2.98-4.79-1.75-9.86-2.7-15-3.43-11.2-1.59-22.51-2.06-33.86-2.24-3.76-.06-7.52-.03-11.28-.12-.78-.02-1.65-.26-2.3-.61-5.11-2.76-10.16-5.6-15.29-8.34-.86-.46-2.05-.8-3.05-.76-11.1.48-22.19,1.04-33.28,1.59-.27.01-.54.09-1.08.18Z"/>
  <path class="cls-2" d="m180.2,112.32c-10.04.23-20.08.45-30.12.68-16.22.36-32.43.71-48.65,1.12-1.87.05-3.33-.5-4.9-1.12-1.16-.46-2.51-.83-3.78-.85-16.22-.25-32.45-.42-48.67-.61-5.29-.06-8.88,2.2-9.99,6.29q-.64,2.37-4.17,1.88c1.4-2.27,2.49-4.58,4.15-6.6,1.81-2.18,4.84-2.74,8.03-2.74,10.05.01,20.1,0,30.16,0,8.48,0,16.96.04,25.44-.03,1.94-.01,3.57.37,5.23,1.13,1.15.52,2.6.87,3.91.88,17.8.03,35.6-.02,53.4-.04,6.65,0,13.3,0,19.95,0,0,0,0,0,0,.01Z"/>
  <path class="cls-2" d="m59.13,158.72c-.39.71-.65,1.18-1.03,1.89,1.57,0,2.94.05,4.31-.03.38-.02.9-.41,1.04-.71.49-1.03,1.4-1.19,2.64-1.16,2.52.07,5.04.02,7.97.02-1.07,1.36-1.93,2.54-2.92,3.64-.22.24-.89.31-1.36.32-1.74.04-3.48.06-5.22,0-1.14-.04-1.99.17-2.4,1.07-.57,1.24-1.65,1.58-3.26,1.48-1.99-.13-3.99-.03-6.21-.03.34-.62.58-1.04.89-1.6-1.45,0-2.73,0-4.01,0-.17,0-.43,0-.48.06-1.67,2.21-4.35.75-6.51,1.14-.2.04-.43-.05-.78-.11.34-.61.64-1.16,1.02-1.85-1.14-.07-2.16-.14-3.2-.21.94-2.87,2.54-3.44,8.02-2.86-.24.45-.47.87-.74,1.36,1.19.36,2.1.22,2.59-.76.7-1.42,1.98-1.82,3.83-1.69,1.83.13,3.69.03,5.84.03Z"/>
  <path class="cls-2" d="m45.34,130.1c10.89-12.96,35.4-13.04,46.35-.02-15.48-7.68-30.79-7.71-46.35.02Z"/>
  <path class="cls-2" d="m197.3,116.47c-10.59.28-21.18.55-31.76.83-20.86.55-41.72,1.11-62.58,1.66-.55.01-1.15,0-1.64-.16-2-.69-3.96-1.45-5.9-2.37h101.88s0,.03,0,.05Z"/>
  <path class="cls-2" d="m39.03,161.07c-1.18,2.55-1.7,2.76-5.93,2.44.95-2.41,1.74-2.74,5.93-2.44Z"/>
  <path class="cls-2" d="m29.09,161.54c.91-1.98,1.13-2.07,4.31-1.79-.33,1.88-1.3,2.28-4.31,1.79Z"/>
  <text class="cls-1" transform="translate(27.39 151.79)"><tspan x="0" y="0">YOU DRIVER</tspan></text>
</svg>